<svg id="Layer_1" enable-background="new 0 0 3000 3000" height="512" viewBox="0 0 3000 3000" width="512" xmlns="http://www.w3.org/2000/svg"><g><path d="m2393.9 2612.6c-17.3-278-34.5-556-51.8-834s-34.5-556-51.8-834c-9.7-156-19.4-312-29.1-468.1 1.9-51.9-8.5-100.3-31-145.3-14.5-46.7-39.3-87.2-74.4-121.3-32.6-36.8-71.2-62.8-115.9-78-42.9-23.6-89.1-34.4-138.7-32.5-31.9 4.5-63.8 9-95.7 13.5-61 17.9-113.9 50.2-158.9 97-18.8 25.4-37.5 50.9-56.3 76.3-32.6 58.8-48.9 122.2-49.2 190.3 17.3 278 34.5 556 51.8 834 1.6 26.4 3.3 52.8 4.9 79.2-106.6-191.9-201.1-390.7-284.6-594.8-23.9-58.3-47.6-116.7-75.8-172.8-14-27.8-29.1-55.1-45.8-81.2-8.3-13.1-17.1-25.8-26.2-38.2-27-37-53.3-75-82.9-109.8-24.3-19.7-48.6-39.3-72.9-59-28.7-12.7-57.3-25.3-86-38-31.9-4.5-63.8-9-95.7-13.5-49.6-2-95.8 8.9-138.7 32.5-30.5 9-57 25.1-79.4 48.5-27 16.8-48.6 39.3-64.6 67.6-22.3 23.5-37.7 51.3-46.3 83.2-22.5 44.9-32.9 93.4-31 145.3-14.2 252.1-24.4 504.5-30.4 756.9-6.1 252.5-8 505-5.9 757.6 1.2 141.9 3.7 283.7 7.4 425.6-1.9 51.9 8.5 100.3 31 145.3 14.5 46.7 39.3 87.2 74.4 121.3 32.6 36.8 71.2 62.8 115.9 78 42.9 23.6 89.1 34.4 138.7 32.5 31.9-4.5 63.8-9 95.7-13.5 61-17.9 113.9-50.2 158.9-97 18.8-25.4 37.5-50.9 56.3-76.3 32.6-58.8 48.9-122.2 49.2-190.3-4.7-178.8-7.4-357.7-8.1-536.6.1.2.2.4.4.6 96.4 150.3 200.6 295 308.6 436.3 89.6 117.2 183.8 230.5 282.6 339.4 12.2 13.4 24.4 26.8 36.8 40.1 24.3 19.7 48.6 39.3 72.9 59 28.7 12.7 57.3 25.3 86 38l95.7 13.5c49.6 2 95.8-8.9 138.7-32.5 30.5-9 57-25.1 79.4-48.5 27-16.8 48.6-39.3 64.6-67.6 22.3-23.5 37.7-51.3 46.3-83.2 22.5-45.1 32.8-93.5 30.9-145.5z" fill="#fe88bd"/><path d="m2549.9 2518.4c-17.3-278-34.5-556-51.8-834s-34.5-556-51.8-834c-9.7-156-19.4-312-29.1-468.1 1.9-51.9-8.5-100.3-31-145.3-14.5-46.7-39.3-87.2-74.4-121.3-32.6-36.8-71.2-62.8-115.9-78-42.9-23.6-89.1-34.4-138.7-32.5-31.9 4.5-63.8 9-95.7 13.5-61 17.9-113.9 50.2-158.9 97-18.8 25.4-37.5 50.9-56.3 76.3-32.6 58.8-48.9 122.2-49.2 190.3 17.3 278 34.5 556 51.8 834 1.6 26.4 3.3 52.8 4.9 79.2-106.6-191.9-201.1-390.7-284.6-594.8-23.9-58.3-47.6-116.7-75.8-172.8-14-27.8-29.1-55.1-45.8-81.2-8.3-13.1-17.1-25.8-26.2-38.2-27-37-53.3-75-82.9-109.8-24.3-19.7-48.6-39.3-72.9-59-28.7-12.7-57.3-25.3-86-38-31.9-4.5-63.8-9-95.7-13.5-49.6-2-95.8 8.9-138.7 32.5-30.5 9-57 25.1-79.4 48.5-27 16.8-48.6 39.3-64.6 67.6-22.3 23.5-37.7 51.3-46.3 83.2-22.5 44.9-32.9 93.4-31 145.3-14.2 252.1-24.4 504.5-30.4 756.9-6.1 252.5-8 505-5.9 757.6 1.2 141.9 3.7 283.7 7.4 425.6-1.9 51.9 8.5 100.3 31 145.3 14.5 46.7 39.3 87.2 74.4 121.3 32.6 36.8 71.2 62.8 115.9 78 42.9 23.6 89.1 34.4 138.7 32.5l95.7-13.5c61-17.9 113.9-50.2 158.9-97 18.8-25.4 37.5-50.9 56.3-76.3 32.6-58.8 48.9-122.2 49.2-190.3-4.7-178.8-7.4-357.7-8.1-536.6.1.2.2.4.4.6 96.4 150.3 200.6 295 308.6 436.3 89.6 117.2 183.8 230.5 282.6 339.4 12.2 13.4 24.4 26.8 36.8 40.1 24.3 19.7 48.6 39.3 72.9 59 28.7 12.7 57.3 25.3 86 38l95.7 13.5c49.6 2 95.8-8.9 138.7-32.5 30.5-9 57-25.1 79.4-48.5 27-16.8 48.6-39.3 64.6-67.6 22.3-23.5 37.7-51.3 46.3-83.2 22.5-45.2 32.8-93.6 30.9-145.5z" fill="#ffc0de"/><path d="m937.8 439.4c0-23.7-67.9-44.6-170.1-56.3 53.8-51.9 82.5-94.1 71.5-111.6-15.5-24.5-104.5 7.2-214.4 72.8-5.5-174.2-25.8-303.4-50-303.4s-44.6 129.5-50 303.9c-110.3-65.9-199.8-97.9-215.3-73.3-11 17.5 17.7 59.8 71.6 111.7-101.7 11.8-169.2 32.6-169.2 56.2 0 25.9 81.1 48.4 199.4 59.4-72.9 64.3-114.7 118.9-101.8 139.4 15.6 24.7 105.6-7.6 216.4-74 6.8 158.9 26.1 273.7 48.9 273.7s42.1-114.5 48.9-273.1c110.4 66 200 98 215.5 73.4 12.9-20.5-28.8-75.1-101.7-139.4 118.8-10.9 200.3-33.4 200.3-59.4z" fill="#fdeca9"/><path d="m2882.5 2619.5c0-33.2-69.7-62.2-173.8-78.1-57-8.7-101.8-55.6-110.1-115.3-15.2-109.1-42.9-182.1-74.6-182.1s-59.4 73-74.6 182.1c-8.3 59.7-53.1 106.6-110.1 115.3-104.2 15.9-173.8 45-173.8 78.1 0 33.2 69.7 62.2 173.8 78.1 57 8.7 101.8 55.6 110.1 115.3 15.2 109.1 42.9 182.1 74.6 182.1s59.4-73 74.6-182.1c8.3-59.7 53.1-106.6 110.1-115.3 104.1-15.9 173.8-44.9 173.8-78.1z" fill="#a1f3ea"/><ellipse cx="2389" cy="653.5" fill="#bcc0f7" rx="113" ry="118.5"/><ellipse cx="534" cy="2116.5" fill="#bcc0f7" rx="113" ry="118.5"/><ellipse cx="1598" cy="1507.5" fill="#bcc0f7" rx="113" ry="118.5"/><ellipse cx="1685" cy="2795.5" fill="#bcc0f7" rx="113" ry="118.5"/><g fill="#fff"><ellipse cx="2165" cy="2116.5" rx="55" ry="57.5"/><ellipse cx="1684" cy="2173.5" rx="55" ry="57.5"/><ellipse cx="1977" cy="837.5" rx="55" ry="57.5"/><ellipse cx="664" cy="1183.5" rx="55" ry="57.5"/><ellipse cx="910" cy="2620.5" rx="55" ry="57.5"/><ellipse cx="1146" cy="771.5" rx="55" ry="57.5"/><ellipse cx="2220" cy="1450.5" rx="55" ry="57.5"/><ellipse cx="1801" cy="261.5" rx="55" ry="57.5"/><ellipse cx="1004" cy="1544.5" rx="55" ry="57.5"/></g></g></svg>